<svg xmlns="http://www.w3.org/2000/svg" width="40" height="40" viewBox="0 0 40 40"><g transform="translate(-1300 -5553)"><rect width="40" height="40" rx="10" transform="translate(1300 5553)" fill="#fff"/><path d="M601.844,233.6a10.464,10.464,0,0,1-2.709.692,5.1,5.1,0,0,0,2.2-2.609.08.08,0,0,0-.115-.1,10.4,10.4,0,0,1-3.092,1.129,5.186,5.186,0,0,0-3.766-1.6,5.079,5.079,0,0,0-5.024,6.235,14.732,14.732,0,0,1-10.606-5.274.029.029,0,0,0-.047,0,5.028,5.028,0,0,0,1.528,6.682.032.032,0,0,1-.019.058,5.212,5.212,0,0,1-2.185-.608.026.026,0,0,0-.04.023,6.874,6.874,0,0,0,.348,1.858,5.205,5.205,0,0,0,3.79,3.14,5.407,5.407,0,0,1-1.362.18,5.15,5.15,0,0,1-.925-.086.029.029,0,0,0-.032.038,5.158,5.158,0,0,0,4.716,3.477.031.031,0,0,1,.019.056,10.438,10.438,0,0,1-6.338,2.122,10.742,10.742,0,0,1-1.228-.07,14.775,14.775,0,0,0,7.906,2.28,14.366,14.366,0,0,0,9.664-3.489,14.894,14.894,0,0,0,4.663-7.893,13.951,13.951,0,0,0,.353-3.065c0-.218-.006-.439-.017-.656a10.373,10.373,0,0,0,2.416-2.4A.079.079,0,0,0,601.844,233.6Z" transform="translate(731.045 5331.887)" fill="#0d0d0d"/></g></svg>