<svg xmlns="http://www.w3.org/2000/svg" width="40" height="40" viewBox="0 0 40 40"><g transform="translate(-1360 -5553)"><rect width="40" height="40" rx="10" transform="translate(1360 5553)" fill="#fff"/><g transform="translate(1225.148 5141.881)" style="isolation:isolate"><g transform="translate(142.363 418.653)"><path d="M164.823,444.449ZM176.766,423.3h0Z" transform="translate(-158.305 -421.952)" fill="#0d0d0d"/><g transform="translate(5.038 4.925)"><path d="M167.176,450.527a7.45,7.45,0,1,0-7.451-7.448A7.458,7.458,0,0,0,167.176,450.527Zm-5.644-7.448a5.644,5.644,0,1,1,5.644,5.644A5.652,5.652,0,0,1,161.532,443.079Z" transform="translate(-159.725 -435.626)" fill="#0d0d0d"/></g><path d="M162.283,443.4H147.421a5.064,5.064,0,0,1-5.058-5.059V423.712a5.064,5.064,0,0,1,5.058-5.059h14.862a5.064,5.064,0,0,1,5.059,5.059v14.635A5.064,5.064,0,0,1,162.283,443.4ZM147.421,420.5a3.217,3.217,0,0,0-3.213,3.213v14.635a3.216,3.216,0,0,0,3.213,3.213h14.862a3.217,3.217,0,0,0,3.213-3.213V423.712a3.217,3.217,0,0,0-3.213-3.213Z" transform="translate(-142.363 -418.653)" fill="#0d0d0d"/></g><path d="M208.549,432.7a1.176,1.176,0,1,0,1.177,1.178A1.178,1.178,0,0,0,208.549,432.7Z" transform="translate(-46.145 -9.969)" fill="#0d0d0d"/></g></g></svg>