<svg xmlns="http://www.w3.org/2000/svg" width="40" height="40" viewBox="0 0 40 40"><g transform="translate(-1420 -5553)"><rect width="40" height="40" rx="10" transform="translate(1420 5553)" fill="#fff"/><g transform="translate(844.645 5129.192)" style="isolation:isolate"><path d="M602.2,434.808h-12.7a6.151,6.151,0,0,0-6.151,6.151v6.031a6.151,6.151,0,0,0,6.151,6.151h12.7a6.151,6.151,0,0,0,6.151-6.151v-6.031A6.151,6.151,0,0,0,602.2,434.808Zm-1.268,9.222-8.349,4.51a.418.418,0,0,1-.617-.368l0-9.056a.418.418,0,0,1,.618-.368l8.352,4.546A.419.419,0,0,1,600.935,444.03Z" fill="#0d0d0d"/></g></g></svg>