<svg xmlns="http://www.w3.org/2000/svg" width="40" height="40" viewBox="0 0 40 40"><g transform="translate(-1600 -5553)"><rect width="40" height="40" rx="10" transform="translate(1600 5553)" fill="#fff"/><g transform="translate(1242.408 5142.977)"><rect width="4.665" height="13.332" transform="translate(367.592 426.689)" fill="#0d0d0d"/><path d="M369.924,420.023a2.334,2.334,0,1,0,2.332,2.333A2.336,2.336,0,0,0,369.924,420.023Z" fill="#0d0d0d"/><path d="M406.379,447.872c-.314-2.513-1.571-4.1-4.967-4.1-2.411,0-3.369.376-3.922,1.428h0v-1.428h-3.776v13.331H397.6V450.13c0-1.742.33-3.058,2.484-3.058,2.123,0,2.294,1.62,2.294,3.171v6.866h4S406.453,448.46,406.379,447.872Z" transform="translate(-18.791 -17.088)" fill="#0d0d0d"/></g></g></svg>