<svg xmlns="http://www.w3.org/2000/svg" width="40" height="40" viewBox="0 0 40 40"><g transform="translate(-1480 -5553)"><rect width="40" height="40" rx="10" transform="translate(1480 5553)" fill="#fff"/><path d="M148.819,107.44a12.5,12.5,0,0,0-3.95,24.362c.625.114.853-.271.853-.6,0-.3-.011-1.083-.017-2.126-3.477.756-4.211-1.675-4.211-1.675a3.311,3.311,0,0,0-1.388-1.829c-1.135-.776.086-.76.086-.76a2.624,2.624,0,0,1,1.915,1.288,2.661,2.661,0,0,0,3.638,1.039,2.672,2.672,0,0,1,.793-1.671c-2.776-.315-5.694-1.387-5.694-6.178a4.833,4.833,0,0,1,1.287-3.354,4.491,4.491,0,0,1,.123-3.308s1.049-.336,3.437,1.281a11.854,11.854,0,0,1,6.259,0c2.387-1.618,3.434-1.281,3.434-1.281a4.492,4.492,0,0,1,.125,3.308,4.824,4.824,0,0,1,1.285,3.354c0,4.8-2.923,5.859-5.708,6.168a2.985,2.985,0,0,1,.849,2.315c0,1.671-.015,3.02-.015,3.429,0,.334.226.723.859.6a12.5,12.5,0,0,0-3.96-24.36Z" transform="translate(1351.68 5453.56)" fill="#131212" fill-rule="evenodd"/></g></svg>